# This file uses centimeters as units for non-parametric coordinates.

mtllib Yeettop.mtl
g default
v -0.719383 -0.084701 0.934109
v 0.629882 -0.084701 0.934109
v -0.719383 -0.011579 0.934109
v 0.629882 -0.011579 0.934109
v -0.719383 -0.011579 -0.934109
v 0.629882 -0.011579 -0.934109
v -0.719383 -0.084701 -0.934109
v 0.629882 -0.084701 -0.934109
v 0.719383 -0.011579 -0.934109
v 0.719383 -0.011579 0.934109
v 0.629882 0.084701 0.934109
v 0.629882 0.084701 -0.934109
v 0.629882 0.000673 0.934109
v 0.629882 0.000673 -0.934109
v 0.719383 0.000673 -0.934109
v 0.719383 0.000673 0.934109
v -0.719383 0.027391 0.907390
v -0.692665 0.000673 0.934109
v -0.692665 0.000673 -0.934109
v -0.719383 0.027391 -0.907390
v -0.719383 0.057983 0.907390
v -0.692665 0.084701 0.934109
v -0.719383 0.057983 -0.907390
v -0.692665 0.084701 -0.934109
v 0.719383 0.051429 0.934109
v 0.686111 0.084701 0.934109
v 0.719383 0.051429 -0.934109
v 0.686111 0.084701 -0.934109
v 0.719383 -0.055163 -0.934109
v 0.689845 -0.084701 -0.934109
v 0.719383 -0.055163 0.934109
v 0.689845 -0.084701 0.934109
vt 0.375000 0.000000
vt 0.043126 0.156761
vt 0.084348 0.156761
vt 0.043126 0.881257
vt 0.084348 0.881257
vt 0.732179 0.125664
vt 0.979901 0.125664
vt 0.734016 0.863654
vt 0.982178 0.858142
vt 0.875000 0.250000
vt 0.125000 0.000000
vt 0.125000 0.250000
vt 0.625000 0.250000
vt 0.875000 0.250000
vt 0.625000 0.250000
vt 0.875000 0.250000
vt 0.705578 0.976196
vt 0.011254 0.976197
vt 0.011254 0.039474
vt 0.705578 0.039475
vt 0.033831 0.910309
vt 0.033831 0.089691
vt 0.047664 0.089691
vt 0.047664 0.910309
vt 0.021749 0.077609
vt 0.021749 0.922391
vt 0.059746 0.077609
vt 0.059746 0.922391
vt 0.020975 0.960917
vt 0.020975 0.039083
vt 0.048720 0.039083
vt 0.048720 0.960917
vt 0.065138 0.039083
vt 0.065138 0.960917
vt 0.192710 0.039083
vt 0.192710 0.083246
vt 0.151248 0.083246
vt 0.151248 0.055500
vt 0.167665 0.039083
vt 0.071182 0.960917
vt 0.071182 0.039083
vt 0.096227 0.039083
vt 0.096227 0.960917
vt 0.102875 0.083246
vt 0.102875 0.039083
vt 0.127920 0.039083
vt 0.144337 0.055500
vt 0.144337 0.083246
vt 0.015409 0.115417
vt 0.064279 0.115417
vt 0.064279 0.884583
vt 0.015409 0.884583
vt 0.069229 0.115417
vt 0.118099 0.115417
vt 0.118099 0.884582
vt 0.069229 0.884582
vt 0.035890 0.960200
vt 0.035890 0.039800
vt 0.057362 0.039800
vt 0.057362 0.960200
vt 0.021337 0.039800
vt 0.021337 0.960200
vt 0.062997 0.960200
vt 0.062997 0.039800
vt 0.092539 0.039800
vt 0.092539 0.960200
vt 0.471402 0.017271
vt 0.155938 0.017271
vt 0.155938 0.010740
vt 0.471402 0.010740
vt 0.476157 0.011283
vt 0.173123 0.011283
vt 0.173123 0.016345
vt 0.476157 0.016345
vt 0.173123 0.016345
vt 0.476158 0.016345
vt 0.476158 0.011283
vt 0.173123 0.011283
vt 0.025355 0.917774
vt 0.025355 0.110800
vt 0.069089 0.110800
vt 0.069089 0.917774
vt 0.074165 0.917774
vt 0.074165 0.110800
vt 0.117898 0.110800
vt 0.117898 0.917774
vt 0.174951 0.362611
vt 0.061901 0.362611
vt 0.061901 0.224238
vt 0.129284 0.224238
vt 0.174951 0.269905
vt 0.121114 0.472633
vt 0.234165 0.472633
vt 0.234165 0.565338
vt 0.188497 0.611006
vt 0.121114 0.611006
vt 0.625000 0.250000
vt 0.375000 0.250000
vn 0.000000 0.000000 1.000000
vn 0.000000 0.000000 1.000000
vn 0.000000 0.000000 1.000000
vn 0.000000 0.000000 1.000000
vn 0.000000 1.000000 0.000000
vn 0.000000 1.000000 0.000000
vn 0.000000 1.000000 0.000000
vn 0.000000 1.000000 0.000000
vn 0.000000 0.000000 -1.000000
vn 0.000000 0.000000 -1.000000
vn 0.000000 0.000000 -1.000000
vn 0.000000 0.000000 -1.000000
vn 0.000000 -1.000000 0.000000
vn 0.000000 -1.000000 0.000000
vn 0.000000 -1.000000 0.000000
vn 0.000000 -1.000000 0.000000
vn 1.000000 0.000000 0.000000
vn 1.000000 0.000000 0.000000
vn 1.000000 0.000000 0.000000
vn 1.000000 0.000000 0.000000
vn -1.000000 0.000000 0.000000
vn -1.000000 0.000000 0.000000
vn -1.000000 0.000000 0.000000
vn -1.000000 0.000000 0.000000
vn 0.000000 -1.000000 0.000000
vn 0.000000 -1.000000 0.000000
vn 0.000000 -1.000000 0.000000
vn 0.000000 -1.000000 0.000000
vn 0.000000 0.000000 -1.000000
vn 0.000000 0.000000 -1.000000
vn 0.000000 0.000000 -1.000000
vn 0.000000 0.000000 -1.000000
vn 0.000000 0.000000 -1.000000
vn 0.000000 1.000000 0.000000
vn 0.000000 1.000000 0.000000
vn 0.000000 1.000000 0.000000
vn 0.000000 1.000000 0.000000
vn 0.000000 0.000000 1.000000
vn 0.000000 0.000000 1.000000
vn 0.000000 0.000000 1.000000
vn 0.000000 0.000000 1.000000
vn 0.000000 0.000000 1.000000
vn -1.000000 0.000000 0.000000
vn -1.000000 0.000000 0.000000
vn -1.000000 0.000000 0.000000
vn -1.000000 0.000000 0.000000
vn 0.000000 0.000000 1.000000
vn 0.000000 0.000000 1.000000
vn 0.000000 0.000000 1.000000
vn 0.000000 0.000000 1.000000
vn 1.000000 0.000000 0.000000
vn 1.000000 0.000000 0.000000
vn 1.000000 0.000000 0.000000
vn 1.000000 0.000000 0.000000
vn 0.000000 0.000000 -1.000000
vn 0.000000 0.000000 -1.000000
vn 0.000000 0.000000 -1.000000
vn 0.000000 0.000000 -1.000000
vn 0.000000 0.000000 -1.000000
vn 0.000000 0.000000 -1.000000
vn 0.000000 0.000000 -1.000000
vn 1.000000 0.000000 0.000000
vn 1.000000 0.000000 0.000000
vn 0.000000 0.000000 1.000000
vn 0.000000 0.000000 1.000000
vn 0.000000 0.000000 1.000000
vn -0.707107 0.000000 0.707106
vn -0.707107 0.000000 0.707106
vn -0.707107 0.000000 0.707106
vn -0.707107 0.000000 0.707106
vn -0.707106 -0.707108 0.000000
vn -0.707106 -0.707108 0.000000
vn -0.707106 -0.707108 0.000000
vn -0.707106 -0.707108 0.000000
vn -0.707108 0.000000 -0.707105
vn -0.707108 0.000000 -0.707105
vn -0.707108 0.000000 -0.707105
vn -0.707108 0.000000 -0.707105
vn -0.707106 0.707108 0.000000
vn -0.707106 0.707108 0.000000
vn -0.707106 0.707108 0.000000
vn -0.707106 0.707108 0.000000
vn -1.000000 0.000000 0.000000
vn -1.000000 0.000000 0.000000
vn -1.000000 0.000000 0.000000
vn -1.000000 0.000000 0.000000
vn 0.000000 -1.000000 0.000000
vn 0.000000 -1.000000 0.000000
vn 0.000000 -1.000000 0.000000
vn 0.000000 -1.000000 0.000000
vn 0.000000 0.000000 1.000000
vn 0.000000 0.000000 1.000000
vn 0.000000 1.000000 0.000000
vn 0.000000 1.000000 0.000000
vn 0.000000 0.000000 -1.000000
vn 0.000000 0.000000 -1.000000
vn 0.707106 0.707107 0.000000
vn 0.707106 0.707107 0.000000
vn 0.707106 0.707107 0.000000
vn 0.707106 0.707107 0.000000
vn 0.707107 -0.707106 0.000000
vn 0.707107 -0.707106 0.000000
vn 0.707107 -0.707106 0.000000
vn 0.707107 -0.707106 0.000000
s off
g Yeettop
usemtl Yeettop_Shader
f 1/79/1 2/80/2 4/81/3 3/82/4
f 3/2/5 4/3/6 6/5/7 5/4/8
f 5/83/9 6/84/10 8/85/11 7/86/12
f 7/6/13 8/7/14 2/9/15 1/8/16
f 31/57/17 29/58/18 9/59/19 10/60/20
f 7/11/21 1/1/22 3/98/23 5/12/24
f 2/63/25 8/64/26 30/65/27 32/66/28
f 8/87/29 6/88/30 9/89/31 29/90/32 30/91/33
s 1
f 12/29/34 11/30/35 26/31/36 28/32/37
s off
f 4/92/38 2/93/39 32/94/40 31/95/41 10/96/42
f 6/10/43 4/97/44 13/13/45 14/16/46
s 2
f 4/71/47 10/72/48 16/73/49 13/74/50
s 3
f 10/67/51 9/68/52 15/69/53 16/70/54
s 4
f 9/75/55 6/76/56 14/77/57 15/78/58
f 15/35/58 14/36/57 12/37/59 28/38/60 27/39/61
s 3
f 16/40/54 15/41/53 27/42/62 25/43/63
s 2
f 13/44/50 16/45/49 25/46/64 26/47/65 11/48/66
s off
f 17/22/67 18/25/68 22/27/69 21/23/70
f 18/25/71 17/22/72 20/21/73 19/26/74
f 19/26/75 20/21/76 23/24/77 24/28/78
f 21/23/79 22/27/80 24/28/81 23/24/82
f 20/21/83 17/22/84 21/23/85 23/24/86
f 14/16/87 13/13/88 18/15/89 19/14/90
s 2
f 13/49/50 11/50/66 22/51/91 18/52/92
s 1
f 11/17/35 12/18/34 24/19/93 22/20/94
s 4
f 12/53/59 14/54/57 19/55/95 24/56/96
s off
f 26/31/97 25/33/98 27/34/99 28/32/100
f 30/61/101 29/58/102 31/57/103 32/62/104
